<?xml version="1.0" standalone="no"?>
<!DOCTYPE svg PUBLIC "-//W3C//DTD SVG 20010904//EN"
 "http://www.w3.org/TR/2001/REC-SVG-20010904/DTD/svg10.dtd">
<svg version="1.0" xmlns="http://www.w3.org/2000/svg"
 width="1000.000000pt" height="1000.000000pt" viewBox="0 0 1000.000000 1000.000000"
 preserveAspectRatio="xMidYMid meet">
<metadata>
Created by potrace 1.11, written by Peter Selinger 2001-2013
</metadata>
<g transform="translate(0.000000,1000.000000) scale(0.100000,-0.100000)"
fill="#000000" stroke="none">
<path d="M5660 8320 c0 -3 -19 -6 -43 -8 -68 -4 -204 -40 -301 -78 -266 -106
-473 -244 -691 -461 -205 -203 -300 -326 -479 -616 -241 -390 -441 -951 -502
-1406 -2 -19 -6 -46 -9 -60 -16 -100 -18 -127 -31 -321 -13 -194 -7 -619 11
-710 2 -11 7 -50 10 -87 4 -37 8 -79 11 -93 4 -24 13 -126 19 -200 1 -20 -8
-58 -22 -90 -30 -69 -89 -261 -98 -321 -4 -24 -10 -63 -15 -87 -8 -44 -6 -214
4 -267 3 -16 12 -81 21 -144 8 -62 17 -117 20 -120 2 -4 7 -23 10 -42 9 -52
73 -206 117 -281 132 -229 364 -452 588 -566 52 -27 100 -50 105 -51 6 -1 33
-9 61 -17 71 -20 91 -24 159 -31 34 -4 88 -19 124 -36 35 -16 69 -30 75 -32 6
-1 22 -6 34 -12 22 -9 23 -10 6 -24 -10 -7 -15 -9 -11 -3 4 7 0 14 -8 18 -8 3
-17 0 -21 -6 -5 -7 -2 -8 6 -3 9 5 11 4 6 -4 -4 -6 -12 -9 -17 -5 -5 3 -7 9
-4 14 3 4 -3 14 -12 21 -14 12 -16 12 -8 -1 12 -19 14 -51 3 -44 -4 3 -8 13
-8 22 0 13 -2 13 -14 -3 -11 -16 -17 -17 -29 -7 -11 10 -17 9 -27 -3 -7 -8
-18 -15 -24 -15 -6 0 -5 4 3 9 18 12 -3 25 -44 26 -19 0 -29 5 -27 13 1 8 -2
11 -8 7 -8 -5 -8 -11 -1 -19 6 -7 7 -17 3 -22 -4 -4 0 -3 10 4 13 10 17 10 20
0 4 -10 9 -10 24 2 17 14 18 14 6 -2 -9 -11 -24 -16 -42 -13 -23 3 -28 0 -27
-16 1 -10 6 -19 11 -19 13 0 -3 -15 -17 -15 -7 -1 -14 2 -17 6 -3 4 -12 9 -20
11 -8 2 -20 10 -27 18 -10 13 -11 12 -10 -4 1 -10 -5 -21 -13 -24 -13 -4 -13
-3 -2 10 10 13 10 18 1 24 -8 5 -9 3 -4 -6 5 -9 4 -11 -4 -6 -8 5 -9 12 -2 19
6 8 4 19 -6 32 -10 14 -14 15 -13 5 4 -27 0 -41 -10 -35 -5 3 -7 13 -4 23 4
13 2 12 -7 -3 -12 -19 -12 -19 -21 0 -6 16 -7 14 -3 -7 4 -19 1 -26 -10 -24
-17 2 -33 16 -19 16 5 0 10 8 11 18 1 10 -4 19 -11 19 -8 0 -11 -9 -9 -21 4
-16 2 -17 -5 -7 -8 10 -11 11 -17 1 -6 -10 -11 -9 -22 5 -7 11 -13 13 -13 6 0
-7 -4 -10 -9 -6 -5 3 -13 0 -17 -6 -5 -8 -13 -4 -27 12 l-19 24 16 -27 c15
-26 15 -28 -3 -37 -18 -10 -31 -6 -31 10 0 5 8 6 18 3 10 -4 13 -3 6 3 -6 4
-14 15 -17 23 -4 12 -6 11 -6 -3 -1 -12 -5 -16 -13 -10 -7 4 -5 -5 5 -20 9
-15 13 -27 8 -27 -5 0 -11 -7 -15 -15 -7 -21 -3 -19 28 10 15 14 32 25 39 25
6 0 -4 -14 -22 -31 -25 -23 -29 -30 -15 -27 11 2 18 -2 17 -9 -2 -7 2 -13 7
-13 13 0 13 13 -1 27 -17 17 9 28 73 28 44 1 55 -2 47 -11 -11 -14 5 -29 20
-19 6 3 14 -2 19 -11 8 -15 10 -14 16 2 4 12 2 23 -8 29 -12 10 -12 13 5 23
24 15 37 16 22 1 -17 -17 -4 -41 18 -34 11 4 19 2 19 -4 0 -10 -14 -15 -33
-12 -5 1 -6 -3 -3 -8 4 -5 1 -11 -6 -13 -7 -3 -4 -7 7 -12 11 -4 17 -5 14 -1
-3 3 8 21 25 40 17 19 32 32 34 30 5 -5 -19 -48 -30 -56 -5 -3 -3 -9 6 -12 9
-4 15 -3 15 1 -2 15 14 52 22 52 11 0 12 -24 2 -34 -4 -3 -8 -17 -10 -29 -2
-17 -1 -19 6 -7 5 8 7 18 5 22 -3 5 1 11 10 14 9 3 12 12 8 22 -5 15 -4 15 11
3 22 -17 22 -31 0 -31 -15 0 -15 -2 -4 -9 10 -6 19 -3 31 11 15 19 16 19 30 2
14 -16 13 -17 -5 -10 -11 4 -16 4 -12 0 4 -4 -1 -13 -11 -21 -12 -10 -8 -10
15 2 24 11 31 20 26 33 -6 15 -5 15 10 3 14 -11 15 -17 5 -30 -9 -12 -7 -11 9
2 14 12 23 15 28 8 4 -8 12 -8 26 -1 11 6 24 8 29 5 17 -11 11 -22 -12 -21
-15 1 -22 -4 -20 -13 2 -9 -3 -11 -13 -7 -9 3 -19 6 -21 6 -3 0 -2 6 2 13 4 6
3 8 -1 4 -17 -15 -14 -36 3 -29 15 5 16 4 2 -14 -14 -17 -14 -18 2 -6 9 8 22
11 27 8 6 -4 8 2 6 15 -3 17 0 20 15 16 25 -6 36 9 20 28 -9 10 -9 15 -1 15 6
0 18 -11 27 -24 16 -26 34 -25 65 1 15 13 19 11 33 -8 8 -13 19 -19 23 -15 4
4 1 11 -7 16 -8 5 -12 11 -9 14 7 7 59 -16 59 -26 0 -5 5 -8 11 -8 8 0 8 5 -1
15 -10 12 -9 16 5 22 12 4 24 -1 37 -17 10 -12 22 -20 25 -16 4 4 1 11 -6 15
-11 7 -11 10 0 14 9 4 6 6 -5 4 -10 -1 -21 3 -23 9 -2 7 6 11 19 10 13 -1 29
3 37 8 12 9 12 8 4 -9 -9 -17 -10 -56 -3 -75 1 -3 2 -8 1 -12 0 -5 4 -8 9 -8
13 0 13 17 0 25 -5 3 -6 13 -3 21 5 13 7 13 15 2 7 -10 8 -8 6 6 -2 10 3 21
11 24 9 3 11 0 6 -9 -5 -8 -4 -11 0 -6 5 4 19 0 31 -8 21 -13 23 -13 29 5 4
11 11 17 17 14 6 -4 6 -10 -1 -17 -15 -15 -14 -34 2 -40 8 -3 14 1 14 9 0 7
-4 11 -9 8 -10 -6 -11 10 -1 19 3 4 12 2 20 -4 7 -6 13 -7 13 -3 0 5 9 15 21
22 19 12 20 12 14 -10 -7 -22 -7 -23 8 -3 11 15 12 22 4 27 -8 5 -7 8 3 8 12
0 12 2 2 9 -8 4 -13 12 -12 17 1 5 -3 10 -8 12 -5 1 -9 -4 -9 -13 0 -8 5 -15
10 -15 5 0 4 -7 -3 -15 -7 -8 -17 -15 -22 -15 -6 0 -6 5 1 14 9 10 8 16 -4 26
-12 10 -14 7 -10 -19 2 -17 0 -31 -5 -31 -14 0 -21 18 -11 25 6 3 8 12 5 20
-6 15 -29 16 -51 2 -8 -5 -13 -3 -13 4 0 8 -4 8 -16 -2 -20 -17 -53 -19 -47
-4 2 7 -3 15 -12 19 -9 3 -14 2 -10 -3 3 -5 -3 -8 -12 -7 -10 2 -21 -2 -25 -8
-5 -7 -8 -6 -8 3 0 11 -4 10 -16 -5 -8 -10 -12 -13 -9 -6 5 10 0 10 -23 -2
-39 -20 -41 -20 -37 2 2 9 4 19 4 22 1 3 5 -1 10 -9 6 -9 11 -10 15 -2 7 10
-6 16 -27 12 -5 -1 -5 4 -2 10 5 8 2 8 -11 1 -11 -5 -27 -8 -36 -7 -10 2 -18
-1 -18 -6 0 -6 -5 -7 -10 -4 -6 4 -7 11 -4 17 5 7 2 8 -7 2 -21 -13 -40 -14
-33 -2 4 6 2 8 -4 5 -13 -9 -9 -42 6 -43 32 -4 35 -6 17 -13 -24 -10 -45 4
-45 31 0 11 -5 18 -12 15 -7 -2 -13 -10 -13 -18 0 -22 -22 -31 -45 -17 -26 17
-26 32 1 18 25 -14 38 -5 19 13 -10 9 -11 9 -6 0 5 -9 2 -11 -9 -6 -13 5 -14
7 -3 14 8 5 9 9 2 9 -19 0 -35 -26 -28 -46 7 -18 6 -18 -12 -1 -19 18 -19 19
3 36 12 10 19 22 15 26 -4 4 3 2 16 -4 20 -11 26 -8 24 10 -1 3 5 6 13 6 8 0
13 -5 12 -10 -1 -5 4 -12 12 -15 10 -3 11 0 5 9 -6 12 -5 12 8 1 13 -10 17
-10 21 0 4 10 6 10 6 -1 1 -10 4 -11 15 -2 10 8 16 9 21 1 3 -5 11 -10 16 -10
6 0 8 4 5 8 -3 5 1 9 9 9 8 0 12 -4 9 -8 -2 -4 0 -10 6 -14 5 -3 10 -1 10 6 0
7 3 9 7 6 3 -4 13 -1 21 6 11 8 14 8 9 0 -12 -19 11 -25 23 -6 10 16 10 16 5
-4 -7 -25 5 -36 25 -21 12 8 11 8 -5 3 -16 -5 -17 -4 -8 6 10 10 15 9 28 -1
18 -15 20 0 3 19 -11 11 -10 12 2 5 25 -14 52 -16 44 -2 -6 10 -5 10 7 1 10
-8 19 -9 27 -3 9 7 9 7 2 -2 -16 -19 -12 -32 6 -17 13 10 17 10 25 -2 8 -13
13 -5 10 15 -1 5 10 1 24 -8 27 -18 27 -17 20 6 -5 18 -4 20 4 8 10 -13 12
-13 22 0 8 12 9 9 3 -10 l-6 -25 27 25 c16 14 25 19 21 13 -8 -14 10 -18 18
-5 3 5 18 8 33 6 39 -3 40 -3 23 -17 -21 -17 -23 -37 -4 -37 8 0 13 4 10 8 -2
4 3 18 13 30 15 20 18 21 36 8 19 -14 19 -15 -7 -27 -15 -6 -25 -15 -23 -20 3
-4 0 -11 -6 -15 -8 -5 -9 -3 -4 7 7 11 6 12 -6 2 -12 -10 -18 -10 -29 0 -10
10 -11 9 -5 -2 5 -8 4 -12 -1 -8 -5 3 -10 -3 -10 -13 0 -11 2 -17 4 -15 3 2
13 -6 24 -18 11 -12 17 -17 14 -10 -4 6 -3 13 1 16 5 2 2 2 -6 0 -9 -2 -11 2
-7 13 3 8 6 19 6 22 0 4 5 0 10 -8 8 -13 13 -13 31 -2 19 12 20 12 15 -10 -3
-13 -3 -17 0 -10 9 19 27 14 20 -5 -6 -15 -4 -15 14 2 20 18 29 8 10 -11 -6
-6 -3 -10 9 -11 11 -1 27 7 37 18 20 22 43 26 25 5 -9 -11 -9 -16 1 -22 7 -4
10 -4 6 1 -4 4 -3 14 3 22 10 11 16 11 36 -2 23 -16 24 -16 11 7 -7 13 -14 25
-16 27 -1 2 -10 5 -20 6 -9 0 -24 5 -32 10 -13 8 -13 6 0 -11 14 -17 13 -18
-1 -7 -12 10 -18 10 -27 1 -16 -16 -53 -21 -49 -7 3 14 -31 21 -39 8 -3 -5
-10 -9 -17 -9 -6 0 7 16 28 36 l40 36 -28 15 c-21 11 -26 18 -18 27 6 7 8 16
4 19 -3 4 -12 -1 -18 -10 -10 -14 -16 -15 -27 -5 -8 6 -19 8 -23 4 -5 -4 -5
-1 -1 6 4 7 12 10 17 7 5 -4 9 -1 9 6 0 7 3 10 6 6 16 -15 286 102 328 143 19
18 20 18 65 -18 54 -44 90 -73 105 -87 6 -5 27 -22 48 -37 20 -15 43 -34 51
-42 8 -8 18 -12 22 -8 4 4 5 1 3 -7 -2 -7 3 -16 11 -19 8 -3 11 0 7 7 -4 6 -2
11 3 11 6 0 11 -6 11 -12 0 -10 3 -9 9 1 6 9 9 5 9 -14 0 -23 -2 -25 -10 -11
-8 13 -13 15 -24 5 -10 -8 -14 -8 -14 0 0 6 -4 11 -10 11 -5 0 -7 -8 -4 -17 5
-14 4 -15 -4 -4 -6 8 -7 21 -4 30 5 14 3 14 -11 3 -8 -8 -13 -20 -11 -27 4 -9
-1 -13 -14 -12 -13 1 -18 6 -14 17 3 9 -6 6 -24 -10 -15 -14 -22 -17 -15 -7
15 19 9 22 -19 7 -17 -9 -18 -8 -13 7 6 16 5 16 -10 4 -9 -7 -14 -18 -10 -25
4 -6 -1 -5 -10 3 -14 11 -17 11 -17 0 0 -11 -2 -11 -10 1 -9 13 -11 13 -21 0
-9 -13 -10 -13 -6 0 2 8 12 14 21 14 12 -1 15 3 11 16 -3 10 2 23 12 31 11 9
14 10 9 2 -4 -8 -2 -13 5 -13 10 0 10 -3 1 -12 -17 -17 -15 -33 3 -18 9 7 13
21 10 31 -10 30 4 22 16 -8 7 -17 13 -23 16 -15 3 7 -1 20 -8 28 -10 12 -10
15 1 12 8 -2 14 2 15 9 0 18 15 28 15 10 0 -9 -4 -18 -10 -22 -13 -8 -2 -32
15 -32 8 0 15 4 15 9 0 4 -4 8 -10 8 -5 0 -10 4 -10 9 0 6 8 8 18 6 11 -2 19
3 19 11 0 11 -3 11 -16 1 -12 -10 -14 -9 -8 5 9 26 -15 28 -42 4 l-23 -21 6
23 c9 28 -2 29 -13 0 -5 -14 -10 -17 -15 -10 -4 6 2 20 14 32 11 11 16 20 11
20 -15 0 -41 -42 -34 -53 4 -7 -1 -8 -13 -3 -10 4 -15 4 -11 0 4 -4 2 -13 -4
-21 -6 -7 -8 -13 -3 -13 5 0 -1 -7 -13 -15 -12 -8 -29 -12 -38 -9 -10 4 -15 2
-13 -7 2 -8 -3 -13 -10 -11 -14 3 -13 -29 2 -39 4 -4 3 -10 -3 -13 -6 -4 -11
-3 -11 1 0 5 -21 9 -47 8 -27 -1 -51 4 -55 9 -5 8 -8 7 -8 0 0 -6 6 -17 14
-24 8 -6 14 -17 12 -23 -1 -7 -1 -9 1 -4 3 4 10 4 16 0 8 -5 8 -2 0 9 -7 8
-10 18 -6 21 3 4 12 -1 20 -11 12 -16 13 -16 7 3 -5 18 -4 18 14 -3 22 -24 42
-31 22 -7 -17 20 0 19 30 -2 24 -16 24 -16 11 0 -8 10 -11 20 -9 23 3 3 15 -6
26 -20 17 -22 21 -23 26 -10 5 12 9 14 20 5 7 -6 22 -8 32 -4 16 6 17 4 6 -9
-10 -13 -9 -18 5 -29 16 -13 17 -12 5 3 -8 10 -9 19 -3 22 5 4 8 20 6 36 -2
16 0 32 5 35 6 4 7 -1 3 -11 -5 -13 -3 -15 8 -9 19 13 112 14 127 2 7 -6 12
-6 12 0 0 5 14 9 30 9 17 0 30 -2 30 -6 0 -3 9 -6 20 -7 11 -1 19 1 16 5 -2 4
16 7 40 8 48 0 52 -9 4 -11 -16 -1 -38 -9 -48 -18 -22 -20 -39 -23 -23 -4 8
10 7 14 -2 14 -6 0 -21 4 -32 8 -16 5 -17 5 -5 -4 12 -8 8 -10 -16 -7 -25 3
-31 1 -29 -12 1 -10 -3 -21 -9 -25 -7 -6 -6 -7 4 -4 8 2 14 9 13 14 -1 6 10
11 24 11 l26 0 -23 -18 c-18 -14 -20 -19 -9 -25 8 -5 11 -5 7 0 -4 4 0 14 10
21 22 17 35 18 25 2 -4 -7 4 -5 19 4 28 19 48 12 21 -7 -13 -9 -13 -14 -3 -20
9 -6 11 -4 5 5 -6 10 -3 12 13 8 16 -4 19 -2 15 10 -4 9 -2 13 4 9 6 -4 14 0
17 8 4 13 2 13 -14 5 -12 -7 -21 -7 -25 0 -3 5 -3 10 2 11 4 0 17 2 27 4 26 5
42 -5 25 -16 -7 -4 -10 -11 -6 -16 5 -4 12 -2 16 6 11 17 24 16 31 -3 4 -12 7
-10 16 8 11 25 3 29 -23 13 -6 -4 -14 -4 -16 1 -3 4 6 12 19 19 14 6 26 7 30
2 3 -5 10 -9 15 -9 6 0 8 4 5 8 -2 4 11 8 29 8 18 0 31 -4 29 -8 -9 -15 9 -8
20 8 10 13 12 13 12 -4 0 -15 -6 -19 -25 -17 -22 2 -23 1 -8 -10 9 -6 14 -14
12 -17 -3 -3 5 -4 17 -3 13 1 23 3 23 4 0 2 10 4 23 7 14 2 21 0 17 -6 -3 -5
-1 -10 4 -10 13 0 14 11 3 25 -9 14 -28 13 -44 -2 -6 -7 -16 -13 -21 -13 -4 0
-5 6 0 13 4 6 8 15 8 19 0 3 4 10 9 15 5 5 6 3 2 -4 -4 -7 -2 -13 3 -13 6 0
11 6 11 13 0 9 3 8 9 -2 5 -8 11 -9 15 -3 4 6 15 9 26 7 11 -2 25 4 31 13 10
16 10 16 5 0 -3 -10 -1 -20 4 -23 6 -4 10 0 10 7 0 9 3 9 10 -2 8 -13 13 -9
12 10 0 3 12 6 26 7 l27 1 -24 -12 c-21 -12 -21 -14 -6 -20 10 -3 15 -9 12
-12 -3 -3 -12 -2 -19 2 -26 17 -38 14 -25 -7 7 -11 14 -14 18 -8 4 7 11 5 20
-4 12 -12 17 -12 27 0 15 15 36 18 27 3 -3 -5 -1 -10 4 -10 22 0 6 33 -17 38
-8 1 -11 -2 -6 -9 4 -7 2 -10 -6 -7 -8 2 -16 11 -18 19 -3 8 -1 11 3 7 4 -4
14 0 22 10 12 16 13 15 7 -3 -6 -16 -5 -18 7 -7 18 16 32 15 26 -3 -4 -8 -2
-17 4 -21 6 -3 8 -13 5 -23 -5 -14 -4 -13 8 1 15 20 31 25 20 6 -4 -7 -3 -8 4
-4 7 4 12 2 12 -5 0 -7 3 -10 6 -6 10 10 -20 44 -38 41 -11 -1 -15 3 -11 13 4
10 8 11 13 3 10 -17 23 -14 30 6 6 16 7 15 12 -4 4 -14 2 -20 -4 -15 -7 3 -8
1 -4 -6 4 -6 12 -8 18 -5 8 5 9 1 4 -12 -6 -15 -5 -17 5 -7 10 10 10 16 2 24
-13 13 -6 39 9 39 6 0 5 -6 -2 -15 -10 -13 -9 -15 9 -15 12 0 20 4 16 9 -5 10
6 9 55 -5 23 -7 24 -6 10 12 -14 17 -13 18 1 7 12 -10 18 -10 28 0 10 9 11 8
5 -6 -9 -24 -42 -41 -57 -29 -11 9 -44 9 -52 0 -2 -2 0 -10 5 -18 8 -13 10
-13 10 2 0 9 7 15 15 14 18 -3 33 -16 18 -16 -6 0 -14 -8 -17 -17 -6 -16 -6
-16 12 0 10 9 22 14 25 10 4 -3 7 -1 7 6 0 8 8 11 19 8 14 -3 18 -1 14 10 -5
13 -1 13 23 -2 l29 -17 -25 22 c-21 18 -22 21 -5 15 11 -4 25 -8 32 -9 7 -1
16 -5 19 -9 4 -4 17 -7 28 -6 19 0 18 1 -4 11 -14 5 -32 11 -39 12 -8 2 -17 9
-19 17 -3 11 -2 12 6 1 12 -18 13 -18 41 -3 13 7 21 8 17 3 -3 -6 -1 -14 6
-18 18 -12 118 -13 118 -1 0 5 7 4 15 -3 8 -7 15 -9 15 -4 0 5 5 2 10 -6 9
-14 9 -4 1 39 -1 2 -8 -2 -16 -9 -8 -7 -15 -9 -15 -5 0 4 -7 2 -15 -5 -12 -10
-15 -10 -15 0 0 10 -3 10 -15 0 -16 -13 -28 -8 -31 14 -1 7 4 13 12 13 7 0 11
-4 8 -9 -8 -13 10 -10 25 5 10 8 12 8 7 0 -4 -8 1 -11 14 -10 24 2 25 6 5 33
-8 12 -11 25 -7 29 4 5 1 5 -5 1 -7 -4 -13 -2 -13 3 0 6 7 11 16 11 9 0 14 -6
11 -13 -3 -8 1 -14 8 -14 10 0 11 6 3 22 -12 26 -36 28 -43 5 -3 -9 -12 -17
-20 -17 -19 0 -19 13 0 21 8 3 15 11 14 18 0 10 -2 10 -6 0 -2 -6 -8 -10 -12
-7 -5 2 -13 -6 -19 -19 -10 -22 -8 -23 18 -21 16 1 31 -3 33 -10 3 -7 -3 -11
-16 -9 -12 1 -22 3 -22 4 0 1 -10 3 -23 6 -16 3 -21 0 -16 -8 5 -10 4 -10 -6
-1 -9 8 -19 9 -32 2 -13 -7 -18 -7 -16 3 2 6 -2 12 -9 13 -6 0 -15 4 -20 9 -5
5 -2 6 6 1 9 -5 12 -4 7 3 -4 7 -3 12 2 12 6 0 12 -6 15 -14 3 -8 15 -14 25
-13 12 0 18 6 15 14 -3 7 1 13 9 13 7 0 19 9 26 20 7 11 8 20 3 20 -5 0 -12
-7 -15 -16 -6 -15 -8 -15 -26 1 -19 17 -21 17 -40 0 -22 -20 -58 -27 -66 -13
-3 4 0 8 6 8 6 0 8 5 5 10 -4 6 -12 4 -22 -6 -13 -13 -18 -13 -25 -2 -5 8 -7
3 -4 -14 3 -19 0 -28 -8 -28 -18 0 -17 47 1 54 8 4 19 4 24 0 5 -3 9 0 9 6 0
20 43 29 62 13 11 -10 18 -11 23 -3 3 6 1 9 -6 8 -6 -2 -13 2 -15 7 -3 8 67
45 96 51 3 0 35 15 72 32 38 17 101 41 140 53 171 50 329 150 488 309 243 242
390 521 450 851 21 115 21 326 1 455 -6 40 -13 96 -16 125 -4 30 -8 68 -11 84
-9 53 -11 367 -3 455 4 47 11 121 14 164 3 44 8 82 10 85 2 4 6 36 9 73 4 37
8 75 10 85 2 10 7 47 11 83 4 36 8 79 10 95 27 250 27 624 0 850 -2 17 -7 55
-10 85 -10 88 -32 219 -50 295 -9 39 -18 86 -21 105 -3 19 -8 38 -10 41 -2 3
-5 19 -8 35 -19 102 -145 437 -216 571 -182 341 -388 564 -685 738 -320 188
-778 346 -1160 401 -60 9 -305 12 -305 4z m718 -535 c102 -9 159 -28 228 -76
205 -144 406 -451 548 -840 24 -68 51 -140 60 -159 13 -31 51 -169 62 -225 2
-11 10 -54 19 -95 18 -95 25 -137 40 -265 22 -186 23 -722 1 -820 -2 -11 -5
-25 -5 -31 -1 -8 -19 -6 -60 7 -295 91 -677 -7 -1006 -260 -83 -63 -246 -229
-328 -331 -71 -88 -208 -287 -291 -423 l-48 -77 -59 82 c-68 93 -120 151 -234
258 -126 117 -194 170 -322 246 -203 121 -345 154 -607 141 l-38 -2 2 110 c2
136 7 233 15 305 4 30 8 75 10 100 2 25 10 77 19 115 9 39 18 82 20 97 7 44
65 263 92 351 91 291 197 537 327 752 57 95 199 301 235 341 9 11 39 45 65 77
66 78 179 191 252 252 33 28 69 58 79 68 41 36 193 132 275 173 77 38 209 87
265 98 12 2 44 10 71 16 28 6 82 14 120 17 39 3 72 7 73 8 2 2 13 2 25 0 12
-2 55 -6 95 -10z m-1488 -5625 c0 -5 -2 -10 -4 -10 -3 0 -8 5 -11 10 -3 6 -1
10 4 10 6 0 11 -4 11 -10z m-572 -12 c-2 -7 2 -14 7 -15 6 -1 8 6 7 15 -3 13
-1 14 12 3 9 -7 13 -18 9 -24 -3 -6 -1 -7 6 -3 6 4 9 12 6 17 -10 15 12 10 25
-6 15 -18 16 -17 -37 -20 -41 -2 -61 13 -47 36 8 13 15 11 12 -3z m986 4 c2
-4 -4 -8 -14 -8 -10 0 -16 4 -14 8 3 4 9 8 14 8 5 0 11 -4 14 -8z m1590 -1 c7
-11 -3 -41 -14 -41 -11 0 -21 30 -14 41 3 5 9 9 14 9 5 0 11 -4 14 -9z m-2449
-28 c-22 -16 -35 -17 -35 -3 0 6 3 9 8 9 20 -3 32 2 26 13 -5 7 -3 8 6 3 10
-6 9 -11 -5 -22z m2280 18 c3 -5 0 -13 -6 -17 -8 -5 -8 -9 1 -14 9 -5 9 -9 1
-14 -6 -4 -11 -2 -11 5 0 8 -5 7 -17 -2 -9 -8 -14 -9 -10 -3 4 7 0 14 -8 18
-8 3 -14 0 -12 -6 3 -16 -31 -18 -37 -1 -4 8 -2 11 5 7 6 -4 15 -1 19 5 4 7
17 13 28 14 12 1 22 5 22 9 0 11 18 10 25 -1z m79 -23 c10 -15 14 -17 10 -5
-4 10 -1 17 7 17 7 0 9 -3 6 -6 -3 -4 -2 -15 4 -26 10 -18 9 -18 -11 -8 -12 6
-24 18 -27 26 -5 13 -7 13 -14 3 -5 -8 -3 -17 4 -22 8 -6 8 -7 -3 -4 -14 3
-21 23 -13 40 7 13 20 7 37 -15z m-2114 3 c-1 -16 -38 -47 -57 -48 -25 -2 -39
12 -24 22 6 3 8 12 5 19 -4 9 6 13 36 13 22 0 40 -3 40 -6z m-203 -16 c0 -8
-4 -12 -9 -9 -5 3 -6 10 -3 15 9 13 12 11 12 -6z m1603 -7 c0 -6 -8 -4 -17 3
-15 12 -16 12 -10 -5 6 -15 5 -17 -6 -8 -8 7 -17 9 -20 5 -4 -3 -7 -1 -7 5 0
12 28 21 48 14 6 -2 12 -9 12 -14z m495 2 c-3 -5 -14 -10 -23 -10 -15 0 -15 2
-2 10 20 13 33 13 25 0z m-2151 -6 c9 -3 16 -11 16 -17 0 -8 -3 -8 -11 0 -6 6
-18 9 -27 6 -10 -4 -13 -2 -8 5 8 14 9 14 30 6z m426 -14 c3 -1 8 -2 12 -1 8
1 5 -20 -5 -35 -8 -14 -47 -25 -47 -14 0 4 9 10 20 13 26 7 16 37 -11 32 -11
-2 -17 0 -14 5 4 7 26 7 45 0z m54 -6 c-18 -14 -18 -14 1 -8 18 5 18 4 2 -6
-9 -6 -21 -8 -27 -5 -15 9 -1 31 21 32 21 2 21 1 3 -13z m290 -15 c-3 -5 -9
-7 -14 -4 -5 3 -13 -3 -19 -12 -9 -14 -12 -15 -19 -5 -5 8 -12 13 -16 13 -3
-1 -5 2 -3 7 1 4 7 7 14 7 6 0 14 3 18 7 9 9 46 -3 39 -13z m537 -19 c6 0 8 4
5 8 -2 4 7 7 21 6 22 0 42 -17 43 -35 0 -13 -33 -19 -45 -9 -9 8 -15 8 -20 1
-4 -7 -16 -2 -32 13 -14 13 -22 29 -19 35 5 8 12 7 22 -4 9 -8 20 -15 25 -15z
m1178 9 c-12 -7 -12 -9 0 -9 8 0 12 -3 8 -6 -10 -10 -26 6 -21 21 4 8 11 12
16 9 6 -4 5 -10 -3 -15z m-1944 1 c-3 -5 -12 -10 -18 -10 -7 0 -6 4 3 10 19
12 23 12 15 0z m115 -5 c-7 -9 -15 -13 -19 -10 -3 3 1 10 9 15 21 14 24 12 10
-5z m381 -28 c-11 -12 -23 -19 -25 -16 -9 9 25 50 36 43 6 -4 2 -14 -11 -27z
m63 25 c3 -5 -1 -9 -9 -9 -8 0 -15 4 -15 9 0 4 4 8 9 8 6 0 12 -4 15 -8z"/>
<path d="M6705 2130 c-4 -6 -11 -7 -17 -4 -7 4 -8 2 -4 -5 6 -9 11 -9 22 0 14
11 18 19 10 19 -3 0 -8 -5 -11 -10z"/>
<path d="M4631 2098 c10 -19 12 -19 30 -2 22 20 26 32 4 14 -8 -7 -15 -8 -15
-3 0 5 -7 10 -14 10 -12 0 -13 -5 -5 -19z"/>
<path d="M5700 2046 c0 -3 9 -10 20 -16 11 -6 20 -8 20 -6 0 3 -9 10 -20 16
-11 6 -20 8 -20 6z"/>
<path d="M5780 2040 c0 -5 -8 -6 -17 -3 -15 6 -16 5 -3 -9 8 -9 17 -12 18 -7
2 5 8 7 13 4 5 -4 6 1 3 9 -7 18 -14 21 -14 6z"/>
<path d="M4555 2220 c-3 -5 -1 -10 4 -10 6 0 11 5 11 10 0 6 -2 10 -4 10 -3 0
-8 -4 -11 -10z"/>
<path d="M7180 2226 c0 -2 8 -10 18 -17 15 -13 16 -12 3 4 -13 16 -21 21 -21
13z"/>
<path d="M3695 2211 c-3 -5 -2 -12 3 -15 5 -3 9 1 9 9 0 17 -3 19 -12 6z"/>
<path d="M3876 2207 c3 -10 9 -15 12 -12 3 3 0 11 -7 18 -10 9 -11 8 -5 -6z"/>
<path d="M5616 2211 c-4 -5 -3 -17 1 -28 6 -16 5 -17 -12 -3 -13 10 -16 11
-11 2 5 -9 3 -13 -5 -11 -28 3 -39 -1 -39 -16 0 -8 5 -15 11 -15 5 0 8 4 4 9
-3 5 0 13 6 17 8 4 9 3 5 -4 -8 -13 6 -16 18 -5 9 9 76 12 71 3 -6 -9 37 -6
53 3 7 5 12 4 12 -2 0 -6 -6 -11 -12 -11 -8 0 -9 -3 -3 -8 13 -9 17 -32 6 -32
-5 0 -11 10 -14 22 -5 18 -8 19 -21 8 -22 -17 -20 -36 2 -19 15 13 16 12 3 -4
-9 -12 -18 -14 -24 -8 -7 7 -16 7 -29 0 -10 -5 -18 -6 -18 -2 0 12 -20 -20
-20 -32 0 -5 5 -3 10 5 5 8 10 11 10 7 0 -4 8 -4 17 2 11 6 24 6 35 0 13 -7
18 -6 16 3 -2 8 6 13 19 13 13 0 23 5 24 10 0 6 7 14 15 18 8 5 11 13 8 19 -4
6 -1 14 5 18 7 4 -10 6 -36 5 -33 -1 -52 4 -61 14 -11 15 -12 14 -7 0 4 -10 0
-16 -9 -16 -17 0 -29 24 -20 38 3 5 3 9 0 9 -3 0 -7 -4 -10 -9z"/>
<path d="M5697 2213 c-10 -9 -9 -23 1 -23 5 0 9 7 9 15 0 17 -1 18 -10 8z"/>
<path d="M3450 2206 c0 -2 7 -7 16 -10 8 -3 12 -2 9 4 -6 10 -25 14 -25 6z"/>
<path d="M4015 2201 c-3 -5 -2 -12 3 -15 5 -3 9 1 9 9 0 17 -3 19 -12 6z"/>
<path d="M4675 2200 c-3 -5 -1 -10 4 -10 6 0 11 5 11 10 0 6 -2 10 -4 10 -3 0
-8 -4 -11 -10z"/>
<path d="M5536 2197 c3 -10 9 -15 12 -12 3 3 0 11 -7 18 -10 9 -11 8 -5 -6z"/>
<path d="M5735 2200 c-3 -5 -1 -10 4 -10 6 0 11 5 11 10 0 6 -2 10 -4 10 -3 0
-8 -4 -11 -10z"/>
<path d="M5402 2169 l-22 -28 22 -7 c38 -13 48 -13 48 -1 0 7 5 4 11 -6 8 -14
14 -16 25 -6 8 6 14 16 14 21 0 6 -8 4 -17 -3 -11 -10 -14 -10 -9 -1 4 6 2 12
-3 12 -6 0 -11 5 -11 12 0 9 3 9 12 0 9 -9 15 -9 25 0 11 9 13 8 11 -3 -3 -16
23 -20 29 -4 2 6 -4 20 -12 30 -15 20 -15 20 -9 0 6 -16 4 -18 -6 -8 -10 9
-17 10 -27 2 -10 -9 -13 -8 -13 2 0 11 -2 11 -10 -1 -7 -11 -10 -11 -10 -2 0
7 -4 11 -9 8 -5 -4 -11 -2 -13 2 -1 5 -13 -4 -26 -19z m48 -11 c0 -5 -4 -6
-10 -3 -5 3 -10 0 -10 -7 0 -10 -3 -9 -9 2 -6 8 -8 17 -5 22 6 9 34 -1 34 -14z"/>
<path d="M3495 2180 c-3 -5 -1 -10 4 -10 6 0 11 5 11 10 0 6 -2 10 -4 10 -3 0
-8 -4 -11 -10z"/>
<path d="M4290 2179 c0 -5 5 -7 10 -4 6 3 10 8 10 11 0 2 -4 4 -10 4 -5 0 -10
-5 -10 -11z"/>
<path d="M4500 2175 c6 -8 9 -19 5 -25 -4 -6 -3 -9 2 -8 4 1 23 -6 41 -15 17
-10 32 -16 33 -15 6 20 5 56 -2 68 -7 13 -9 13 -10 0 -1 -8 -3 -19 -4 -25 -2
-5 -3 -14 -4 -20 -1 -5 -14 5 -30 23 -28 31 -56 47 -31 17z"/>
<path d="M4530 2182 c0 -5 7 -17 16 -28 15 -18 15 -18 5 2 -6 12 -7 24 -4 28
3 3 1 6 -5 6 -7 0 -12 -4 -12 -8z"/>
<path d="M4703 2183 c-7 -3 -13 -9 -13 -15 0 -7 4 -7 13 1 10 7 17 7 24 0 8
-8 13 -8 17 0 4 6 6 11 4 12 -20 5 -35 5 -45 2z"/>
<path d="M6905 2180 c-3 -6 1 -7 9 -4 18 7 21 14 7 14 -6 0 -13 -4 -16 -10z"/>
<path d="M7259 2188 c-6 -19 -4 -50 4 -55 6 -4 7 -1 2 7 -6 10 -4 12 10 6 18
-6 18 -6 2 12 -9 10 -14 22 -10 25 3 4 3 7 0 7 -4 0 -7 -1 -8 -2z"/>
<path d="M7530 2179 c0 -5 5 -7 10 -4 6 3 10 8 10 11 0 2 -4 4 -10 4 -5 0 -10
-5 -10 -11z"/>
<path d="M3755 2170 c-4 -6 -10 -8 -14 -6 -4 3 -8 -1 -8 -9 0 -10 4 -12 12 -5
7 5 14 8 17 5 2 -3 5 2 5 10 0 18 -3 19 -12 5z"/>
<path d="M6816 2165 c4 -8 11 -15 16 -15 6 0 5 6 -2 15 -7 8 -14 15 -16 15 -2
0 -1 -7 2 -15z"/>
<path d="M7020 2164 c8 -10 15 -20 16 -22 1 -2 4 1 7 5 3 5 -4 15 -16 23 -21
12 -21 12 -7 -6z"/>
<path d="M7195 2170 c-3 -5 -2 -18 4 -27 7 -14 9 -12 8 10 -2 30 -3 31 -12 17z"/>
<path d="M7315 2160 c2 -27 10 -33 12 -10 1 11 -2 22 -6 24 -4 3 -7 -4 -6 -14z"/>
<path d="M3590 2161 c0 -6 4 -12 8 -15 5 -3 9 1 9 9 0 8 -4 15 -9 15 -4 0 -8
-4 -8 -9z"/>
<path d="M3626 2162 c-3 -5 1 -9 9 -9 8 0 15 4 15 9 0 4 -4 8 -9 8 -6 0 -12
-4 -15 -8z"/>
<path d="M4130 2160 c0 -5 5 -10 10 -10 6 0 10 5 10 10 0 6 -4 10 -10 10 -5 0
-10 -4 -10 -10z"/>
<path d="M4185 2160 c-3 -6 1 -7 9 -4 18 7 21 14 7 14 -6 0 -13 -4 -16 -10z"/>
<path d="M7090 2160 c0 -5 5 -10 10 -10 6 0 10 5 10 10 0 6 -4 10 -10 10 -5 0
-10 -4 -10 -10z"/>
<path d="M7346 2162 c-3 -5 1 -9 9 -9 8 0 12 4 9 9 -3 4 -7 8 -9 8 -2 0 -6 -4
-9 -8z"/>
<path d="M7585 2160 c-3 -6 1 -7 9 -4 18 7 21 14 7 14 -6 0 -13 -4 -16 -10z"/>
<path d="M4156 2145 c-9 -26 -7 -32 5 -12 6 10 9 21 6 23 -2 3 -7 -2 -11 -11z"/>
<path d="M5591 2147 c-5 -5 -26 -11 -46 -13 -46 -3 -70 -21 -54 -41 10 -11 9
-12 -5 -7 -10 4 -16 1 -16 -7 0 -9 -3 -10 -8 -4 -9 13 -32 17 -32 6 0 -5 5
-12 10 -14 6 -3 5 -4 -2 -3 -23 5 -14 31 10 30 13 -1 21 3 19 9 -7 21 -33 13
-56 -17 -14 -17 -21 -28 -17 -24 5 4 17 3 28 -3 14 -8 25 -6 43 5 13 9 26 12
29 7 3 -4 17 -7 31 -6 14 2 25 0 25 -4 0 -4 6 -8 13 -9 6 0 21 -3 32 -5 11 -2
25 3 32 12 10 13 14 14 25 3 11 -11 10 -12 -4 -7 -10 4 -18 3 -18 -3 0 -11 24
-11 28 1 1 4 2 14 2 23 0 14 -4 13 -34 -4 l-33 -20 0 22 c-1 39 -3 47 -12 42
-5 -4 -8 -17 -7 -30 2 -17 -1 -23 -10 -19 -16 6 -18 20 -4 25 6 2 1 9 -11 17
-19 11 -21 11 -16 -3 8 -20 -13 -33 -24 -15 -12 20 19 43 38 27 10 -8 18 -7
32 6 18 17 56 12 45 -6 -3 -5 8 -2 25 6 29 15 41 28 24 25 -5 -1 -10 0 -13 1
-17 7 -61 5 -69 -3z m54 -15 c-3 -3 -11 0 -18 7 -9 10 -8 11 6 5 10 -3 15 -9
12 -12z"/>
<path d="M5912 2149 c2 -8 -2 -13 -9 -12 -7 2 -10 -4 -7 -12 8 -19 18 -19 33
-1 9 10 8 16 -4 26 -13 11 -16 11 -13 -1z"/>
<path d="M7429 2143 c-13 -16 -12 -17 4 -4 16 13 21 21 13 21 -2 0 -10 -8 -17
-17z"/>
<path d="M3030 2140 c0 -5 5 -10 11 -10 5 0 7 5 4 10 -3 6 -8 10 -11 10 -2 0
-4 -4 -4 -10z"/>
<path d="M3836 2135 c-9 -26 -7 -32 5 -12 6 10 9 21 6 23 -2 3 -7 -2 -11 -11z"/>
<path d="M3950 2140 c0 -5 5 -10 10 -10 6 0 10 5 10 10 0 6 -4 10 -10 10 -5 0
-10 -4 -10 -10z"/>
<path d="M4028 2143 c6 -2 18 -2 25 0 6 3 1 5 -13 5 -14 0 -19 -2 -12 -5z"/>
<path d="M4084 2141 c17 -7 17 -8 2 -24 -21 -21 -30 -22 -22 -2 3 8 1 15 -4
15 -6 0 -10 -6 -10 -14 0 -27 20 -27 45 0 l24 26 -2 -31 c-1 -24 -6 -30 -19
-25 -20 6 -33 -12 -17 -22 8 -4 9 -3 5 4 -5 8 1 11 16 9 18 -1 22 2 20 17 -3
17 -2 18 12 7 11 -9 16 -10 16 -2 0 6 -4 11 -9 11 -5 0 -11 8 -13 18 -3 11
-16 18 -34 19 -22 1 -24 0 -10 -6z"/>
<path d="M4186 2134 c-20 -14 -20 -14 0 -28 16 -13 20 -13 27 0 4 8 4 20 0 28
-7 13 -11 13 -27 0z m24 -14 c0 -5 -4 -10 -10 -10 -5 0 -10 5 -10 10 0 6 5 10
10 10 6 0 10 -4 10 -10z"/>
<path d="M7049 2133 c-10 -11 -10 -14 -1 -9 6 4 12 3 12 -2 0 -14 -26 -33 -33
-25 -4 3 -7 4 -7 1 0 -13 60 -66 65 -58 4 6 1 10 -5 10 -6 0 -8 5 -4 11 10 17
25 -12 18 -35 -4 -12 -2 -16 5 -12 6 4 11 14 11 22 0 8 5 14 10 14 14 0 13
-23 -2 -38 -9 -9 -9 -15 -1 -23 8 -8 11 -6 10 7 -2 20 23 26 36 9 5 -6 7 -4 4
5 -2 8 -10 14 -16 13 -6 -2 -11 4 -11 12 0 13 7 12 43 -5 23 -12 34 -15 25 -7
-10 8 -15 17 -11 21 3 3 15 -1 25 -11 10 -9 18 -13 18 -9 0 4 10 2 23 -4 21
-11 21 -10 3 4 -11 9 -17 19 -13 22 4 4 13 1 22 -6 9 -7 15 -8 15 -2 0 6 -4
12 -8 14 -4 2 1 12 12 22 19 19 19 19 14 -2 -4 -12 -2 -25 4 -28 6 -4 5 -9 -3
-14 -7 -5 -14 -16 -15 -24 -1 -9 2 -14 7 -10 5 3 7 9 4 14 -3 5 4 12 16 15 19
6 20 7 2 21 -21 16 -10 19 17 4 12 -7 17 -17 14 -28 -5 -14 -4 -15 5 -2 15 21
14 28 -9 35 -11 4 -18 11 -15 16 4 5 13 5 24 -1 10 -5 21 -7 23 -4 3 2 15 6
27 9 20 4 24 -3 22 -35 0 -10 1 -11 5 -3 4 10 11 10 25 2 11 -5 17 -14 14 -18
-2 -5 3 -15 13 -22 15 -13 16 -12 3 4 -7 9 -10 17 -5 17 5 1 -2 11 -16 23 -14
12 -32 31 -40 41 -14 17 -13 18 7 12 12 -4 24 -3 27 2 9 15 -43 11 -55 -4 -13
-16 -33 -19 -24 -4 3 6 1 10 -4 10 -6 0 -11 -4 -11 -10 0 -5 -5 -10 -10 -10
-7 0 -7 7 0 23 10 20 10 21 -3 4 -9 -11 -18 -14 -21 -8 -4 5 -2 12 4 16 5 3
10 12 10 18 0 7 -5 4 -11 -5 -5 -10 -17 -18 -24 -18 -8 0 -15 -5 -15 -11 0 -5
-5 -7 -12 -3 -7 5 -5 11 7 21 11 7 14 13 8 13 -17 0 -44 -30 -38 -41 4 -5 2
-9 -3 -9 -16 0 -22 13 -11 26 7 8 6 14 -2 20 -7 4 -9 3 -6 -3 4 -6 0 -16 -8
-23 -12 -10 -16 -9 -21 4 -4 11 -13 15 -25 11 -13 -4 -19 -1 -19 9 0 8 -4 18
-10 21 -5 3 -7 0 -5 -7 4 -9 -2 -14 -15 -14 -22 0 -27 12 -7 19 9 4 9 6 0 6
-20 2 -25 -18 -10 -40 8 -11 18 -16 21 -11 3 6 0 13 -6 15 -7 3 -8 6 -2 6 5 1
19 -6 30 -14 10 -8 14 -15 7 -15 -6 0 -10 -9 -8 -20 2 -11 -1 -20 -7 -20 -5 0
-8 7 -5 15 4 8 2 17 -3 20 -9 5 -14 -6 -12 -25 0 -3 -8 -6 -18 -6 -12 0 -17 6
-15 17 3 12 -2 17 -16 16 -10 -1 -19 -5 -19 -9 0 -4 -4 -8 -8 -8 -5 0 -9 7 -9
15 0 8 5 11 10 8 6 -4 7 -1 2 8 -8 12 -6 12 8 0 13 -10 17 -10 17 -1 0 9 4 9
17 -1 9 -8 7 0 -7 19 -27 37 -32 38 -51 15z m35 -8 c3 -8 1 -15 -3 -15 -5 0
-11 7 -15 15 -3 8 -1 15 3 15 5 0 11 -7 15 -15z m140 -66 c-3 -5 3 -6 12 -2
11 4 13 8 6 11 -7 2 -12 8 -12 14 0 6 6 6 15 -2 17 -14 38 -4 29 13 -4 7 -1 6
7 -2 12 -11 12 -14 0 -18 -7 -3 -22 -14 -32 -24 -15 -15 -19 -16 -30 -3 -8 10
-15 12 -23 4 -24 -24 -28 -10 -12 39 l9 25 18 -23 c11 -13 16 -27 13 -32z
m111 32 c3 -5 1 -12 -4 -15 -5 -3 -11 1 -15 9 -6 16 9 21 19 6z"/>
<path d="M7190 2076 c-9 -12 -8 -15 8 -13 12 0 18 6 15 14 -6 16 -8 16 -23 -1z"/>
<path d="M7505 2140 c-3 -6 1 -7 9 -4 18 7 21 14 7 14 -6 0 -13 -4 -16 -10z"/>
<path d="M7632 2145 c4 -4 3 -14 -4 -22 -6 -7 -9 -15 -7 -18 3 -2 10 4 17 15
9 15 9 21 -1 26 -6 4 -9 4 -5 -1z"/>
<path d="M3190 2136 c0 -2 8 -10 18 -17 15 -13 16 -12 3 4 -13 16 -21 21 -21
13z"/>
<path d="M3269 2123 c-13 -16 -12 -17 4 -4 16 13 21 21 13 21 -2 0 -10 -8 -17
-17z"/>
<path d="M3649 2123 c-13 -16 -12 -17 4 -4 9 7 17 15 17 17 0 8 -8 3 -21 -13z"/>
<path d="M3755 2130 c-3 -6 1 -7 9 -4 18 7 21 14 7 14 -6 0 -13 -4 -16 -10z"/>
<path d="M3910 2130 c8 -5 20 -10 25 -10 6 0 3 5 -5 10 -8 5 -19 10 -25 10 -5
0 -3 -5 5 -10z"/>
<path d="M7221 2124 c0 -11 3 -14 6 -6 3 7 2 16 -1 19 -3 4 -6 -2 -5 -13z"/>
<path d="M7575 2129 c-4 -6 -5 -12 -2 -15 2 -3 7 2 10 11 7 17 1 20 -8 4z"/>
<path d="M7753 2125 c0 -8 3 -13 5 -10 3 3 12 -1 21 -7 10 -8 9 -4 -3 10 -23
26 -23 26 -23 7z"/>
<path d="M3579 2113 c-13 -16 -12 -17 4 -4 14 11 20 11 35 0 15 -13 16 -12 3
4 -7 9 -17 17 -21 17 -4 0 -14 -8 -21 -17z"/>
<path d="M3980 2127 c0 -12 32 -37 41 -32 12 8 12 35 -1 35 -5 0 -7 -8 -3 -17
6 -16 4 -16 -15 1 -12 11 -22 16 -22 13z"/>
<path d="M5595 2120 c3 -5 8 -10 11 -10 2 0 4 5 4 10 0 6 -5 10 -11 10 -5 0
-7 -4 -4 -10z"/>
<path d="M7380 2118 c0 -4 7 -8 15 -8 8 0 15 4 15 8 0 5 -7 9 -15 9 -8 0 -15
-4 -15 -9z"/>
<path d="M7816 2113 c-6 -14 -5 -15 5 -6 7 7 10 15 7 18 -3 3 -9 -2 -12 -12z"/>
<path d="M8595 2120 c-3 -5 -1 -10 4 -10 6 0 11 5 11 10 0 6 -2 10 -4 10 -3 0
-8 -4 -11 -10z"/>
<path d="M4746 2111 c-4 -5 -2 -12 3 -15 5 -4 12 -2 15 3 4 5 2 12 -3 15 -5 4
-12 2 -15 -3z"/>
<path d="M5275 2111 c-2 -4 3 -15 11 -26 8 -10 14 -17 15 -14 0 2 2 13 4 25 3
13 -1 21 -11 21 -8 0 -17 -3 -19 -6z"/>
<path d="M5363 2114 c4 -4 -1 -13 -11 -21 -15 -12 -14 -13 8 -2 33 16 33 16
13 23 -9 4 -14 4 -10 0z"/>
<path d="M7514 2113 c3 -6 -1 -16 -10 -21 -15 -8 -15 -10 0 -15 10 -4 15 -3
11 2 -3 5 1 11 7 14 10 3 10 8 -1 18 -8 8 -11 9 -7 2z"/>
<path d="M7597 2113 c-10 -9 -9 -23 1 -23 5 0 9 7 9 15 0 17 -1 18 -10 8z"/>
<path d="M7719 2115 c-1 -3 -2 -13 -3 -22 -1 -10 -5 -25 -11 -33 -7 -13 -6
-13 8 -2 9 8 20 11 25 8 5 -3 9 1 9 8 0 8 -6 12 -13 9 -9 -3 -12 2 -9 16 3 17
-2 32 -6 16z"/>
<path d="M8155 2111 c-3 -5 -2 -12 3 -15 5 -3 9 1 9 9 0 17 -3 19 -12 6z"/>
<path d="M3096 2102 c-3 -5 1 -9 9 -9 8 0 12 4 9 9 -3 4 -7 8 -9 8 -2 0 -6 -4
-9 -8z"/>
<path d="M3175 2100 c3 -5 8 -10 11 -10 2 0 4 5 4 10 0 6 -5 10 -11 10 -5 0
-7 -4 -4 -10z"/>
<path d="M3788 2088 c2 -10 6 -18 7 -18 1 0 5 8 7 18 3 11 0 19 -7 19 -7 0
-10 -8 -7 -19z"/>
<path d="M3893 2097 c-3 -6 -1 -7 5 -3 5 3 12 1 14 -6 5 -14 38 -20 38 -6 0 6
-7 7 -16 4 -11 -4 -15 -2 -11 7 6 16 -21 19 -30 4z"/>
<path d="M5235 2101 c-3 -5 -2 -12 3 -15 5 -3 9 1 9 9 0 17 -3 19 -12 6z"/>
<path d="M7673 2093 c0 -9 4 -10 14 -2 7 6 13 12 13 14 0 1 -6 2 -13 2 -8 0
-14 -6 -14 -14z"/>
<path d="M8053 2095 c0 -8 4 -12 9 -9 5 3 6 10 3 15 -9 13 -12 11 -12 -6z"/>
<path d="M2875 2089 c-4 -6 -5 -12 -2 -15 2 -3 7 2 10 11 7 17 1 20 -8 4z"/>
<path d="M3535 2089 c-4 -6 -5 -12 -2 -15 2 -3 7 2 10 11 7 17 1 20 -8 4z"/>
<path d="M3814 2089 c-3 -6 -2 -15 3 -20 5 -5 9 -1 9 11 0 23 -2 24 -12 9z"/>
<path d="M4156 2085 c-9 -26 -7 -32 5 -12 6 10 9 21 6 23 -2 3 -7 -2 -11 -11z"/>
<path d="M5106 2091 c-4 -5 -2 -12 3 -15 5 -4 12 -2 15 3 4 5 2 12 -3 15 -5 4
-12 2 -15 -3z"/>
<path d="M7539 2088 c-1 -7 -1 -16 0 -20 0 -5 -6 -8 -14 -8 -8 0 -15 -5 -15
-11 0 -5 -5 -7 -12 -3 -7 4 -8 3 -4 -5 10 -16 49 12 53 39 1 11 1 20 -2 20 -3
0 -6 -6 -6 -12z"/>
<path d="M7566 2085 c-3 -8 -1 -15 4 -15 6 0 10 7 10 15 0 8 -2 15 -4 15 -2 0
-6 -7 -10 -15z"/>
<path d="M7873 2085 c0 -8 4 -12 9 -9 5 3 6 10 3 15 -9 13 -12 11 -12 -6z"/>
<path d="M2676 2078 c3 -5 10 -6 15 -3 13 9 11 12 -6 12 -8 0 -12 -4 -9 -9z"/>
<path d="M3616 2073 c-6 -14 -5 -15 5 -6 7 7 10 15 7 18 -3 3 -9 -2 -12 -12z"/>
<path d="M4025 2080 c-3 -6 1 -7 9 -4 18 7 21 14 7 14 -6 0 -13 -4 -16 -10z"/>
<path d="M4187 2079 c7 -7 15 -10 18 -7 3 3 -2 9 -12 12 -14 6 -15 5 -6 -5z"/>
<path d="M4296 2078 c3 -4 14 -8 24 -8 10 0 21 4 24 8 3 5 -8 9 -24 9 -16 0
-27 -4 -24 -9z"/>
<path d="M4370 2069 c7 -11 14 -19 16 -16 7 7 -7 37 -17 37 -6 0 -5 -9 1 -21z"/>
<path d="M7115 2080 c-3 -5 -1 -10 4 -10 6 0 11 5 11 10 0 6 -2 10 -4 10 -3 0
-8 -4 -11 -10z"/>
<path d="M7461 2081 c-11 -7 -9 -10 8 -16 13 -4 25 -4 28 -1 4 3 -1 6 -11 6
-9 0 -14 5 -11 10 8 12 4 12 -14 1z"/>
<path d="M7614 2079 c-3 -6 -1 -16 5 -22 9 -9 10 -7 5 7 -6 15 -4 17 6 11 9
-5 11 -4 6 3 -9 15 -13 15 -22 1z"/>
<path d="M3995 2071 c-6 -11 13 -26 22 -17 4 3 1 6 -6 6 -7 0 -9 5 -6 10 3 6
4 10 1 10 -3 0 -7 -4 -11 -9z"/>
<path d="M3710 2055 c5 -7 7 -15 3 -18 -3 -4 -1 -7 5 -7 6 0 10 8 9 18 0 10
-7 19 -14 19 -9 0 -10 -4 -3 -12z"/>
<path d="M3955 2061 c-3 -5 0 -13 6 -17 7 -4 9 -3 5 4 -3 5 0 13 6 15 9 4 10
6 1 6 -6 1 -14 -3 -18 -8z"/>
<path d="M4055 2063 c3 -3 -3 -16 -12 -27 -15 -17 -15 -18 -1 -8 13 10 17 10
21 0 3 -7 5 -3 3 9 -1 12 -5 25 -9 28 -4 3 -5 2 -2 -2z"/>
<path d="M4175 2045 c0 -13 3 -21 8 -18 4 2 7 10 7 18 0 8 -3 16 -7 18 -5 3
-8 -5 -8 -18z"/>
<path d="M4215 2059 c-4 -6 -5 -12 -2 -15 2 -3 7 2 10 11 7 17 1 20 -8 4z"/>
<path d="M4350 2063 c0 -6 8 -17 18 -24 16 -13 16 -13 2 6 -8 11 -16 22 -17
24 -2 2 -3 0 -3 -6z"/>
<path d="M7590 2065 c0 -5 5 -17 10 -25 5 -8 10 -10 10 -5 0 6 -5 17 -10 25
-5 8 -10 11 -10 5z"/>
<path d="M3790 2057 c0 -2 6 -10 14 -16 11 -9 16 -9 22 1 4 7 4 10 -1 6 -4 -4
-14 -3 -22 3 -7 6 -13 9 -13 6z"/>
<path d="M4417 2046 c-4 -10 -3 -15 3 -11 6 3 10 1 10 -6 0 -7 3 -10 6 -6 3 3
2 13 -4 22 -8 16 -9 16 -15 1z"/>
<path d="M7390 2050 c-8 -5 -10 -10 -5 -10 6 0 17 5 25 10 8 5 11 10 5 10 -5
0 -17 -5 -25 -10z"/>
<path d="M3459 2048 c-5 -18 -6 -38 -1 -34 7 8 12 36 6 36 -2 0 -4 -1 -5 -2z"/>
<path d="M3497 2035 c-4 -8 -3 -16 1 -19 4 -3 9 4 9 15 2 23 -3 25 -10 4z"/>
<path d="M3646 2038 c3 -5 10 -6 15 -3 13 9 11 12 -6 12 -8 0 -12 -4 -9 -9z"/>
<path d="M4116 2033 c-6 -14 -5 -15 5 -6 7 7 10 15 7 18 -3 3 -9 -2 -12 -12z"/>
<path d="M4230 2046 c0 -2 9 -6 20 -9 11 -3 18 -1 14 4 -5 9 -34 13 -34 5z"/>
<path d="M4295 2041 c-3 -5 0 -13 6 -17 8 -5 9 -3 4 6 -6 10 -1 12 18 8 15 -3
24 -1 21 3 -7 12 -41 11 -49 0z"/>
<path d="M7550 2040 c0 -5 5 -10 11 -10 5 0 7 5 4 10 -3 6 -8 10 -11 10 -2 0
-4 -4 -4 -10z"/>
<path d="M7855 2040 c3 -5 8 -10 11 -10 2 0 4 5 4 10 0 6 -5 10 -11 10 -5 0
-7 -4 -4 -10z"/>
<path d="M4386 2023 c-6 -14 -5 -15 5 -6 7 7 10 15 7 18 -3 3 -9 -2 -12 -12z"/>
<path d="M5860 2031 c-8 -6 -17 -8 -20 -6 -3 2 -7 -6 -7 -18 -2 -20 -1 -20 8
-4 6 9 15 17 22 17 7 0 6 -4 -3 -10 -8 -5 -11 -12 -7 -17 5 -4 13 -1 18 7 8
11 12 12 16 3 2 -7 9 -13 14 -13 6 0 7 5 4 10 -3 6 -1 10 4 10 6 0 11 -6 11
-12 0 -9 3 -9 9 1 13 20 3 40 -19 38 -10 -1 -16 -7 -13 -14 4 -9 0 -11 -11 -7
-9 3 -13 10 -10 15 7 11 3 11 -16 0z"/>
<path d="M6214 2019 c-11 -12 -12 -19 -4 -24 7 -4 16 -1 21 6 8 11 12 10 24
-5 8 -11 15 -15 15 -9 0 7 -5 15 -11 18 -6 4 -8 13 -6 19 7 19 -21 15 -39 -5z
m26 7 c0 -2 -8 -10 -17 -17 -16 -13 -17 -12 -4 4 13 16 21 21 21 13z"/>
<path d="M6385 2020 c9 -10 13 -25 9 -36 -5 -17 -4 -17 7 1 19 31 19 31 41 5
l20 -25 -20 35 c-15 24 -28 35 -46 36 -24 1 -25 0 -11 -16z m35 4 c0 -8 -19
-13 -24 -6 -3 5 1 9 9 9 8 0 15 -2 15 -3z"/>
<path d="M3570 2019 c0 -5 5 -7 10 -4 6 3 10 8 10 11 0 2 -4 4 -10 4 -5 0 -10
-5 -10 -11z"/>
<path d="M3870 2018 c0 -4 4 -8 9 -8 6 0 12 4 15 8 3 5 -1 9 -9 9 -8 0 -15 -4
-15 -9z"/>
<path d="M4000 2015 c-7 -9 -11 -17 -9 -20 3 -2 10 5 17 15 14 24 10 26 -8 5z"/>
<path d="M4495 2020 c-3 -6 1 -7 9 -4 18 7 21 14 7 14 -6 0 -13 -4 -16 -10z"/>
<path d="M4579 2028 c-6 -12 -4 -46 2 -42 4 2 5 12 2 21 -5 12 -3 14 7 8 9 -5
11 -4 6 3 -7 11 -14 15 -17 10z"/>
<path d="M4874 2019 c-3 -6 -1 -16 5 -22 9 -9 10 -7 5 7 -6 15 -4 17 6 11 9
-5 11 -4 6 3 -9 15 -13 15 -22 1z"/>
<path d="M7375 2021 c-3 -5 -2 -12 3 -15 5 -3 9 1 9 9 0 17 -3 19 -12 6z"/>
<path d="M7630 2020 c0 -5 5 -10 11 -10 5 0 7 5 4 10 -3 6 -8 10 -11 10 -2 0
-4 -4 -4 -10z"/>
<path d="M7815 2020 c-3 -5 -1 -10 4 -10 6 0 11 5 11 10 0 6 -2 10 -4 10 -3 0
-8 -4 -11 -10z"/>
<path d="M3815 2009 c-4 -6 -5 -12 -2 -15 2 -3 7 2 10 11 7 17 1 20 -8 4z"/>
<path d="M4094 2000 c0 -13 4 -16 10 -10 7 7 7 13 0 20 -6 6 -10 3 -10 -10z"/>
<path d="M5110 2010 c0 -5 5 -10 10 -10 6 0 10 5 10 10 0 6 -4 10 -10 10 -5 0
-10 -4 -10 -10z"/>
<path d="M5356 2004 c-4 -9 -4 -19 -1 -22 3 -3 5 0 5 7 0 7 4 9 10 6 6 -3 7 1
4 9 -8 20 -10 20 -18 0z"/>
<path d="M7071 2004 c0 -11 3 -14 6 -6 3 7 2 16 -1 19 -3 4 -6 -2 -5 -13z"/>
<path d="M3953 1995 c0 -8 4 -12 9 -9 4 3 8 9 8 15 0 5 -4 9 -8 9 -5 0 -9 -7
-9 -15z"/>
<path d="M4192 2005 c3 -3 16 -8 28 -10 12 -2 20 -1 16 2 -4 4 -16 8 -28 10
-12 2 -19 1 -16 -2z"/>
<path d="M4510 2000 c0 -5 5 -10 11 -10 5 0 7 5 4 10 -3 6 -8 10 -11 10 -2 0
-4 -4 -4 -10z"/>
<path d="M4633 1992 c0 -12 5 -22 9 -22 11 0 10 12 -2 30 -7 12 -9 10 -7 -8z"/>
<path d="M4795 2000 c3 -5 8 -10 11 -10 2 0 4 5 4 10 0 6 -5 10 -11 10 -5 0
-7 -4 -4 -10z"/>
<path d="M5000 1999 c0 -5 5 -7 10 -4 6 3 10 8 10 11 0 2 -4 4 -10 4 -5 0 -10
-5 -10 -11z"/>
<path d="M5147 1999 c7 -9 10 -19 6 -22 -3 -4 -1 -7 5 -7 17 0 15 16 -5 31
-16 12 -17 12 -6 -2z"/>
<path d="M5286 1995 c4 -8 8 -15 10 -15 2 0 4 7 4 15 0 8 -4 15 -10 15 -5 0
-7 -7 -4 -15z"/>
<path d="M5520 1996 c0 -20 17 -29 26 -15 5 8 3 9 -6 4 -10 -6 -12 -4 -7 8 3
10 2 17 -3 17 -6 0 -10 -6 -10 -14z"/>
<path d="M6905 2000 c-2 -3 7 -6 21 -6 13 0 24 3 24 7 0 9 -40 8 -45 -1z"/>
<path d="M6996 1995 c-11 -8 -15 -15 -9 -15 7 0 15 5 18 10 4 6 11 8 16 5 5
-4 9 -1 9 4 0 15 -11 13 -34 -4z"/>
<path d="M7219 1994 c-7 -8 -7 -14 1 -19 6 -4 9 -1 8 6 -2 7 2 13 9 14 17 0
25 12 8 12 -8 0 -20 -6 -26 -13z"/>
<path d="M7417 1995 c-4 -8 -3 -16 1 -19 4 -3 9 4 9 15 2 23 -3 25 -10 4z"/>
<path d="M4153 1985 c0 -8 4 -12 9 -9 5 3 6 10 3 15 -9 13 -12 11 -12 -6z"/>
<path d="M7335 1991 c-3 -5 -2 -12 3 -15 5 -3 9 1 9 9 0 17 -3 19 -12 6z"/>
<path d="M7455 1991 c-3 -5 -2 -12 3 -15 5 -3 9 1 9 9 0 17 -3 19 -12 6z"/>
<path d="M3626 1982 c-3 -5 1 -9 9 -9 8 0 12 4 9 9 -3 4 -7 8 -9 8 -2 0 -6 -4
-9 -8z"/>
<path d="M3676 1982 c-3 -5 1 -9 9 -9 8 0 12 4 9 9 -3 4 -7 8 -9 8 -2 0 -6 -4
-9 -8z"/>
<path d="M3735 1980 c3 -5 8 -10 11 -10 2 0 4 5 4 10 0 6 -5 10 -11 10 -5 0
-7 -4 -4 -10z"/>
<path d="M3855 1980 c3 -5 8 -10 11 -10 2 0 4 5 4 10 0 6 -5 10 -11 10 -5 0
-7 -4 -4 -10z"/>
<path d="M3890 1979 c0 -5 5 -7 10 -4 6 3 10 8 10 11 0 2 -4 4 -10 4 -5 0 -10
-5 -10 -11z"/>
<path d="M4390 1976 c7 -7 13 -7 20 0 6 6 3 10 -10 10 -13 0 -16 -4 -10 -10z"/>
<path d="M4433 1967 c-1 -11 -1 -18 0 -16 2 2 8 11 15 20 9 12 9 16 -1 16 -7
0 -14 -9 -14 -20z"/>
<path d="M4470 1986 c0 -2 7 -7 16 -10 8 -3 12 -2 9 4 -6 10 -25 14 -25 6z"/>
<path d="M4950 1980 c0 -5 5 -10 10 -10 6 0 10 5 10 10 0 6 -4 10 -10 10 -5 0
-10 -4 -10 -10z"/>
<path d="M5390 1980 c0 -5 5 -10 10 -10 6 0 10 5 10 10 0 6 -4 10 -10 10 -5 0
-10 -4 -10 -10z"/>
<path d="M5475 1981 c3 -6 -3 -14 -12 -20 -10 -6 -13 -11 -7 -11 12 0 34 20
34 32 0 4 -5 8 -11 8 -5 0 -8 -4 -4 -9z"/>
<path d="M5556 1973 c-6 -14 -5 -15 5 -6 7 7 10 15 7 18 -3 3 -9 -2 -12 -12z"/>
<path d="M5631 1983 c3 -20 -2 -27 -11 -13 -7 12 -9 10 -7 -7 1 -21 3 -21 19
-6 10 8 15 20 12 24 -6 11 -14 12 -13 2z"/>
<path d="M5672 1981 c-11 -7 -11 -9 0 -14 9 -3 15 1 15 9 0 8 -1 14 -1 14 -1
0 -7 -4 -14 -9z"/>
<path d="M5750 1980 c0 -5 5 -10 11 -10 5 0 7 5 4 10 -3 6 -8 10 -11 10 -2 0
-4 -4 -4 -10z"/>
<path d="M6190 1980 c0 -6 7 -10 15 -10 8 0 15 2 15 4 0 2 -7 6 -15 10 -8 3
-15 1 -15 -4z"/>
<path d="M6235 1980 c-3 -5 -1 -10 4 -10 6 0 11 5 11 10 0 6 -2 10 -4 10 -3 0
-8 -4 -11 -10z"/>
<path d="M6419 1988 c-7 -23 -4 -35 7 -35 9 0 11 4 4 12 -5 7 -7 15 -3 18 3 4
3 7 0 7 -4 0 -7 -1 -8 -2z"/>
<path d="M6475 1981 c-3 -5 -2 -12 3 -15 5 -3 9 1 9 9 0 17 -3 19 -12 6z"/>
<path d="M6657 1983 c-9 -8 12 -33 27 -33 6 0 3 5 -7 11 -9 6 -15 14 -12 20 7
10 2 12 -8 2z"/>
<path d="M6756 1981 c-3 -5 2 -15 12 -22 15 -12 16 -12 5 2 -7 9 -10 19 -6 22
3 4 4 7 0 7 -3 0 -8 -4 -11 -9z"/>
<path d="M6788 1983 c6 -2 18 -2 25 0 6 3 1 5 -13 5 -14 0 -19 -2 -12 -5z"/>
<path d="M6838 1983 c7 -3 16 -2 19 1 4 3 -2 6 -13 5 -11 0 -14 -3 -6 -6z"/>
<path d="M7035 1980 c-3 -5 -1 -10 4 -10 6 0 11 5 11 10 0 6 -2 10 -4 10 -3 0
-8 -4 -11 -10z"/>
<path d="M4530 1976 c0 -2 8 -10 18 -17 15 -13 16 -12 3 4 -13 16 -21 21 -21
13z"/>
<path d="M4810 1970 c-9 -6 -10 -10 -3 -10 6 0 15 5 18 10 8 12 4 12 -15 0z"/>
<path d="M5866 1964 c-5 -14 -4 -15 9 -4 17 14 19 20 6 20 -5 0 -12 -7 -15
-16z"/>
<path d="M3930 1960 c0 -5 5 -10 11 -10 5 0 7 5 4 10 -3 6 -8 10 -11 10 -2 0
-4 -4 -4 -10z"/>
<path d="M4215 1960 c3 -5 8 -10 11 -10 2 0 4 5 4 10 0 6 -5 10 -11 10 -5 0
-7 -4 -4 -10z"/>
<path d="M4355 1960 c-3 -5 -1 -10 4 -10 6 0 11 5 11 10 0 6 -2 10 -4 10 -3 0
-8 -4 -11 -10z"/>
<path d="M5231 1967 c2 -2 11 -8 20 -15 12 -9 16 -9 16 1 0 7 -9 14 -20 14
-11 1 -18 1 -16 0z"/>
<path d="M5293 1953 c0 -10 4 -10 16 -1 9 7 18 13 20 15 2 1 -5 1 -16 0 -11 0
-20 -7 -20 -14z"/>
<path d="M5713 1952 c-8 -14 -8 -19 1 -19 7 0 13 9 13 19 1 10 1 18 0 18 -1 0
-7 -8 -14 -18z"/>
<path d="M6295 1960 c-2 -3 5 -6 15 -7 11 -1 22 2 24 5 3 4 -4 8 -15 8 -11 0
-22 -3 -24 -6z"/>
<path d="M6350 1961 c0 -6 4 -13 10 -16 6 -3 7 1 4 9 -7 18 -14 21 -14 7z"/>
<path d="M7836 1953 c-6 -14 -5 -15 5 -6 7 7 10 15 7 18 -3 3 -9 -2 -12 -12z"/>
<path d="M4035 1939 c-3 -4 2 -6 10 -5 21 3 28 13 10 13 -9 0 -18 -4 -20 -8z"/>
<path d="M4130 1940 c0 -5 5 -10 11 -10 5 0 7 5 4 10 -3 6 -8 10 -11 10 -2 0
-4 -4 -4 -10z"/>
<path d="M4706 1938 c3 -5 10 -6 15 -3 13 9 11 12 -6 12 -8 0 -12 -4 -9 -9z"/>
<path d="M5201 1936 c-9 -11 -9 -16 1 -22 7 -4 10 -4 6 1 -4 4 -3 14 3 22 6 7
9 13 6 13 -2 0 -10 -6 -16 -14z"/>
<path d="M5349 1937 c6 -8 7 -18 3 -22 -4 -5 -1 -5 6 -1 10 6 10 11 1 22 -6 8
-14 14 -16 14 -3 0 0 -6 6 -13z"/>
<path d="M5520 1940 c-9 -6 -10 -10 -3 -10 6 0 15 5 18 10 8 12 4 12 -15 0z"/>
<path d="M6935 1940 c3 -5 8 -10 11 -10 2 0 4 5 4 10 0 6 -5 10 -11 10 -5 0
-7 -4 -4 -10z"/>
<path d="M7014 1942 c4 -3 14 -7 22 -8 9 -1 13 0 10 4 -4 3 -14 7 -22 8 -9 1
-13 0 -10 -4z"/>
<path d="M4435 1931 c-3 -5 -2 -12 3 -15 5 -3 9 1 9 9 0 17 -3 19 -12 6z"/>
<path d="M4789 1923 c-13 -16 -12 -17 4 -4 16 13 21 21 13 21 -2 0 -10 -8 -17
-17z"/>
<path d="M5013 1925 c0 -8 4 -12 9 -9 5 3 6 10 3 15 -9 13 -12 11 -12 -6z"/>
<path d="M4176 1922 c-3 -5 1 -9 9 -9 8 0 12 4 9 9 -3 4 -7 8 -9 8 -2 0 -6 -4
-9 -8z"/>
<path d="M4290 1920 c0 -5 5 -10 11 -10 5 0 7 5 4 10 -3 6 -8 10 -11 10 -2 0
-4 -4 -4 -10z"/>
<path d="M5036 1913 c-6 -14 -5 -15 5 -6 7 7 10 15 7 18 -3 3 -9 -2 -12 -12z"/>
<path d="M5060 1926 c0 -2 8 -10 18 -17 15 -13 16 -12 3 4 -13 16 -21 21 -21
13z"/>
<path d="M5096 1918 c3 -4 11 -5 19 -1 21 7 19 12 -4 10 -11 0 -18 -5 -15 -9z"/>
<path d="M5580 1926 c0 -2 8 -10 18 -17 15 -13 16 -12 3 4 -13 16 -21 21 -21
13z"/>
<path d="M5895 1911 c-3 -5 -2 -12 3 -15 5 -3 9 1 9 9 0 17 -3 19 -12 6z"/>
<path d="M4530 1900 c0 -5 5 -10 11 -10 5 0 7 5 4 10 -3 6 -8 10 -11 10 -2 0
-4 -4 -4 -10z"/>
<path d="M4655 1900 c3 -5 8 -10 11 -10 2 0 4 5 4 10 0 6 -5 10 -11 10 -5 0
-7 -4 -4 -10z"/>
<path d="M5770 1899 c0 -5 5 -7 10 -4 6 3 10 8 10 11 0 2 -4 4 -10 4 -5 0 -10
-5 -10 -11z"/>
<path d="M6155 1899 c-3 -4 2 -6 10 -5 21 3 28 13 10 13 -9 0 -18 -4 -20 -8z"/>
<path d="M6290 1900 c0 -5 5 -10 11 -10 5 0 7 5 4 10 -3 6 -8 10 -11 10 -2 0
-4 -4 -4 -10z"/>
<path d="M5275 1889 c-4 -6 -5 -12 -2 -15 2 -3 7 2 10 11 7 17 1 20 -8 4z"/>
<path d="M5510 1896 c0 -2 8 -10 18 -17 15 -13 16 -12 3 4 -13 16 -21 21 -21
13z"/>
<path d="M4586 1878 c3 -5 10 -6 15 -3 13 9 11 12 -6 12 -8 0 -12 -4 -9 -9z"/>
<path d="M5671 1873 c7 -12 15 -20 18 -17 3 2 -3 12 -13 22 -17 16 -18 16 -5
-5z"/>
<path d="M5950 1880 c0 -5 5 -10 11 -10 5 0 7 5 4 10 -3 6 -8 10 -11 10 -2 0
-4 -4 -4 -10z"/>
<path d="M6035 1880 c-3 -5 -1 -10 4 -10 6 0 11 5 11 10 0 6 -2 10 -4 10 -3 0
-8 -4 -11 -10z"/>
<path d="M3480 1840 c-9 -6 -10 -10 -3 -10 6 0 15 5 18 10 8 12 4 12 -15 0z"/>
</g>
</svg>
